<?xml version="1.0" ?><!DOCTYPE svg  PUBLIC '-//W3C//DTD SVG 1.1//EN'  'http://www.w3.org/Graphics/SVG/1.1/DTD/svg11.dtd'><svg enable-background="new 0 0 24 24" height="24px" id="Layer_1" version="1.1" viewBox="0 0 24 24" width="24px" xml:space="preserve" xmlns="http://www.w3.org/2000/svg" xmlns:xlink="http://www.w3.org/1999/xlink"><path d="M23.8,12L20,8.2V11h-2.6c-0.2-1-0.6-2.1-1.5-2.9C15.1,7.3,14,6.8,13,6.6V4h2.8L12,0.2L8.2,4H11v2.6c-1,0.2-2.1,0.6-2.9,1.5  C7.3,8.9,6.8,10,6.6,11H4V8.2L0.2,12L4,15.8V13h2.6c0.2,1,0.6,2.1,1.5,2.9c0.8,0.8,1.9,1.3,2.9,1.5V20H8.2l3.8,3.8l3.8-3.8H13v-2.6  c1-0.2,2.1-0.6,2.9-1.5c0.8-0.8,1.3-1.9,1.5-2.9H20v2.8L23.8,12z M14.6,14.6c-1.4,1.4-3.7,1.4-5.1,0C8,13.1,8,10.9,9.4,9.4  c1.4-1.4,3.7-1.4,5.1,0C16,10.9,16,13.1,14.6,14.6z"/></svg>